<svg width="164" height="32" viewBox="0 0 164 32" fill="none" xmlns="http://www.w3.org/2000/svg">
<g clip-path="url(#clip0_1951_1316)">
<path fill-rule="evenodd" clip-rule="evenodd" d="M134.054 5.29853H131.989C130.613 5.29853 129.595 6.38745 129.595 7.78293V10.1552H132.705C133.283 10.1552 133.723 10.6297 133.723 11.1874C133.723 11.774 133.283 12.2201 132.705 12.2201H129.595V22.3207C129.595 22.9072 129.154 23.3533 128.577 23.3533C128.026 23.3533 127.559 22.9068 127.559 22.3207V7.78116C127.559 5.21348 129.485 3.23145 131.991 3.23145H134.056C134.606 3.23145 135.074 3.70592 135.074 4.26411C135.074 4.85065 134.606 5.29676 134.056 5.29676L134.054 5.29853ZM145.365 23.3579C144.815 23.3579 144.347 22.9114 144.347 22.3253V4.26824C144.347 3.71005 144.815 3.23559 145.365 3.23559C145.943 3.23559 146.383 3.71005 146.383 4.26824V22.3253C146.383 22.9118 145.943 23.3579 145.365 23.3579ZM152.496 16.9694H162.956L162.958 16.9744C163.508 16.9744 164.031 16.5274 163.976 15.7742C163.784 12.255 160.921 9.77149 157.425 9.77149C153.599 9.77149 150.517 12.8956 150.517 16.7754C150.517 20.6535 153.6 23.7794 157.425 23.7794C159.049 23.7794 160.536 23.1933 161.719 22.2444C162.159 21.8816 162.214 21.2676 161.884 20.7935C161.526 20.319 160.838 20.2631 160.425 20.5981C159.572 21.2959 158.499 21.714 157.37 21.714C154.754 21.714 152.607 19.5924 152.496 16.9694ZM152.771 15.1259C153.43 13.1997 155.247 11.8042 157.366 11.8042H157.373C159.41 11.8042 161.337 12.9206 161.584 15.1259H152.771ZM136.835 6.05189C136.835 6.83336 137.468 7.47572 138.239 7.47572C139.01 7.47572 139.67 6.83336 139.67 6.05189C139.67 5.24251 139.009 4.60059 138.239 4.60059C137.468 4.60059 136.835 5.24207 136.835 6.05189ZM109.611 16.7681C109.611 20.6462 112.695 23.7721 116.52 23.7721C120.346 23.7721 123.429 20.6471 123.429 16.7681C123.429 12.8896 120.346 9.76417 116.52 9.76417C112.694 9.76417 109.611 12.8882 109.611 16.7681ZM116.548 11.8285C113.85 11.8285 111.674 14.0329 111.674 16.768C111.674 19.5032 113.848 21.7076 116.548 21.7076C119.245 21.7076 121.421 19.5032 121.421 16.768C121.421 14.0329 119.247 11.8285 116.548 11.8285ZM102.595 17.269C102.595 14.1724 104.382 12.2187 107.272 12.2187V12.2148C107.822 12.2148 108.291 11.7686 108.291 11.1821C108.291 10.6244 107.822 10.1499 107.272 10.1499C105.127 10.1499 103.53 11.2654 102.595 12.9125V11.1821C102.595 10.6244 102.155 10.1499 101.577 10.1499C101.026 10.1499 100.559 10.6244 100.559 11.1821V22.3193C100.559 22.9054 101.026 23.352 101.577 23.352C102.154 23.352 102.595 22.9059 102.595 22.3193V17.269ZM89.7377 23.7725C87.6187 23.7725 85.857 22.7678 84.7286 21.2048V24.6417C84.7286 25.2282 84.2879 25.6748 83.7101 25.6748C83.1599 25.6748 82.6922 25.2278 82.6922 24.6417V11.1831C82.6922 10.6253 83.1599 10.1509 83.7101 10.1509C84.2884 10.1509 84.7286 10.6253 84.7286 11.1831V12.3553C85.857 10.7923 87.6187 9.75972 89.7377 9.75972C93.4808 9.75972 96.4238 12.8851 96.4238 16.7637C96.4238 20.6426 93.4786 23.7676 89.7377 23.7676V23.7725ZM84.7297 16.7685C84.7297 13.9483 87.1229 11.7714 89.765 11.7714C92.4355 11.7714 94.3898 14.0334 94.3898 16.7685C94.3898 19.4736 92.4351 21.7347 89.765 21.7347C87.0687 21.7347 84.7297 19.5595 84.7297 16.7685ZM78.9167 12.2181H77.21C76.0536 12.2181 75.2278 13.0829 75.2278 14.283V19.3909C75.2278 21.7348 73.6041 23.3536 71.2921 23.3536H69.5033C68.9251 23.3536 68.4854 22.907 68.4854 22.3209C68.4854 21.7353 68.9256 21.2887 69.5033 21.2887H71.21C72.3935 21.2887 73.1918 20.4231 73.1918 19.2234V14.1155C73.1918 11.7716 74.816 10.1528 77.1275 10.1528H78.9172C79.4945 10.1528 79.9351 10.6273 79.9351 11.185C79.9351 11.7716 79.494 12.2181 78.9167 12.2181ZM63.6962 22.3225C63.6962 22.9086 64.1639 23.3552 64.7146 23.3552L64.7107 23.3667C65.288 23.3667 65.7287 22.9206 65.7287 22.3341V11.1968C65.7287 10.6391 65.288 10.1646 64.7107 10.1646C64.16 10.1646 63.6923 10.6391 63.6923 11.1968V17.0844C63.6923 19.427 61.7672 21.7714 58.9321 21.7714C56.5376 21.7714 54.5833 19.9551 54.5833 17.2483V11.188C54.5833 10.6023 54.1431 10.1557 53.5649 10.1557C52.9875 10.1557 52.5469 10.6023 52.5469 11.188V17.4388C52.5469 20.9275 55.0807 23.7738 58.5211 23.7738C60.641 23.7738 62.5398 22.7975 63.6962 21.2345V22.3225ZM48.9714 12.218C46.0821 12.218 44.2942 14.1716 44.2942 17.2683V22.3186C44.2942 22.9051 43.854 23.3512 43.2762 23.3512C42.7255 23.3512 42.2578 22.9047 42.2578 22.3186V11.1813C42.2578 10.6236 42.7255 10.1491 43.2762 10.1491C43.8544 10.1491 44.2942 10.6236 44.2942 11.1813V12.9117C45.2297 11.2646 46.8267 10.1491 48.9714 10.1491C49.5221 10.1491 49.9899 10.6236 49.9899 11.1813C49.9899 11.7679 49.5221 12.214 48.9714 12.214V12.218ZM139.254 11.1853C139.254 10.6276 138.814 10.1531 138.236 10.1531C137.686 10.1531 137.218 10.6276 137.218 11.1853V22.3225C137.218 22.9086 137.686 23.3552 138.236 23.3552C138.814 23.3552 139.254 22.9091 139.254 22.3225V11.1853Z" fill="#333333"/>
<path fill-rule="evenodd" clip-rule="evenodd" d="M16.6065 0.000344565C8.42471 -0.0518665 1.43505 5.83508 0.192516 13.8396C-1.05014 21.8449 3.83326 29.535 11.656 31.9109C11.8586 31.9724 12.0781 31.942 12.2561 31.8278C12.4341 31.7135 12.5525 31.527 12.5798 31.3179L13.4681 24.5045L14.7371 14.6909C14.7633 14.4883 14.7014 14.2843 14.567 14.13L14.1683 13.6724C14.3223 13.6496 14.4658 13.5775 14.5762 13.4654C14.7115 13.328 14.7857 13.1422 14.7819 12.9498L14.6746 7.50959V7.16925C14.6746 6.8109 14.4103 6.514 14.0652 6.46119L16.4001 4.78189L18.7295 6.45723C18.387 6.51234 18.1255 6.80799 18.1255 7.16443V7.2526C18.1124 7.32932 18.1122 7.40564 18.1234 7.47919L18.0232 12.9653C18.0196 13.1575 18.0939 13.3431 18.2292 13.4803C18.3396 13.5921 18.4829 13.6641 18.6368 13.6869L18.2381 14.1445C18.1037 14.2988 18.0418 14.5028 18.068 14.7053L19.3581 24.692C19.3596 24.7082 19.3617 24.7245 19.3644 24.7407L20.2252 31.3753C20.2522 31.5829 20.3689 31.7684 20.5449 31.883C20.7208 31.9976 20.9383 32.0299 21.1402 31.9714C28.9932 29.6955 33.9766 22.0685 32.8386 14.048C31.7007 6.02827 24.7884 0.0525558 16.6065 0.000344565ZM20.8585 25.0693L21.5421 30.3385C28.2465 27.9888 32.411 21.2797 31.4133 14.2484C30.3762 6.93937 24.0729 1.48085 16.5973 1.43315C9.1217 1.38545 2.74752 6.76312 1.61508 14.0584C0.526244 21.0727 4.59804 27.831 11.265 30.2692L11.9757 24.8187C8.5644 22.9995 6.52055 19.3616 6.79605 15.5023C7.04446 12.0226 9.13408 8.98335 12.2075 7.44631C12.1716 7.36108 12.1517 7.26748 12.1517 7.16925V6.43588C12.1517 6.20589 12.2627 5.98988 12.4499 5.85518L15.9786 3.31734C16.2302 3.13638 16.57 3.13638 16.8216 3.31734L20.3502 5.85518C20.5375 5.98988 20.6485 6.20589 20.6485 6.43588V7.16443C20.6485 7.18455 20.6476 7.20448 20.646 7.22419C23.9672 8.66555 26.2794 11.8264 26.5433 15.5002C26.8355 19.5666 24.5537 23.3621 20.8585 25.0693ZM19.5476 8.33088L19.4757 12.2619H20.2069C20.4888 12.2619 20.7447 12.4256 20.8617 12.6808C20.9787 12.9361 20.9353 13.2358 20.7506 13.4477L19.5368 14.8409L20.6639 23.5659C23.5797 22.0229 25.3456 18.915 25.1076 15.6024C24.869 12.282 22.6666 9.44602 19.5476 8.33088ZM13.2552 8.5388C10.4083 9.78158 8.45426 12.4887 8.23187 15.6039C8.01023 18.7087 9.54937 21.6506 12.1753 23.2792L13.2683 14.8263L12.0544 13.4332C11.8698 13.2213 11.8264 12.9216 11.9434 12.6664C12.0604 12.4112 12.3163 12.2474 12.5981 12.2474H13.3283L13.2552 8.5388Z" fill="url(#paint0_linear_1951_1316)"/>
</g>
<defs>
<linearGradient id="paint0_linear_1951_1316" x1="16.5" y1="3.77477e-10" x2="16.5" y2="32.5405" gradientUnits="userSpaceOnUse">
<stop stop-color="#EA18B0"/>
<stop offset="1" stop-color="#346DF1"/>
</linearGradient>
<clipPath id="clip0_1951_1316">
<rect width="164" height="32" fill="white"/>
</clipPath>
</defs>
</svg>
